<?xml version="1.0" encoding="utf-8"?>
<!-- Svg Vector Icons : http://www.onlinewebfonts.com/icon -->
<!DOCTYPE svg PUBLIC "-//W3C//DTD SVG 1.1//EN" "http://www.w3.org/Graphics/SVG/1.1/DTD/svg11.dtd">
<svg version="1.1" xmlns="http://www.w3.org/2000/svg" xmlns:xlink="http://www.w3.org/1999/xlink" x="0px" y="0px" viewBox="0 0 256 256" enable-background="new 0 0 256 256" xml:space="preserve">
<metadata> Svg Vector Icons : http://www.onlinewebfonts.com/icon </metadata>
<g><g><g><path fill="#e76666" d="M117.5,41.5v28.7H89.1c-31.4,0-30.4-0.1-33.3,3.2l-1.6,1.8v10.1v10.1H35.4c-21.2,0-21.7,0.1-24.2,3.5l-1.2,1.7v68.9c0,68.2,0,68.9,1,70.2c0.5,0.7,1.7,1.8,2.5,2.4l1.5,1h112.7h112.7l1.6-1.1c0.9-0.6,2.1-1.8,2.7-2.5l1-1.4l0.1-68.3l0.1-68.3l-1.1-1.9c-0.7-1.2-1.9-2.4-3.3-3.1c-2.2-1.1-2.3-1.1-21.2-1.1h-18.9v-9.8c0-9.3,0-9.9-1.1-11.4c-0.6-0.9-1.8-2.1-2.5-2.7c-1.4-1-1.8-1-36.7-1.2l-35.3-0.1v-7.5c0-6.9,0.1-7.5,0.9-7.1c8.8,3.6,13,3.8,21,1.1c7.7-2.7,9-2.6,19.7,1.5l8.7,3.4l0.1-19.5c0.1-10.7,0-19.7-0.2-19.9c-0.2-0.2-3.7-1.7-7.8-3.2c-7.4-2.9-7.5-2.9-12.6-2.9c-4.7,0.1-5.7,0.2-10.3,1.8c-2.8,1-5.9,1.8-7,1.8c-1.2,0-5.4-1.3-11.2-3.5c-5.1-1.9-9.3-3.5-9.4-3.5C117.6,12.8,117.5,25.7,117.5,41.5z M163.3,26.2l4.6,1.7v10.7v10.7l-4.1-1.5c-3.8-1.3-4.5-1.5-8.8-1.2c-3.7,0.1-5.8,0.6-10,2c-2.9,1-5.9,1.8-6.5,1.8c-0.7,0-3.8-0.9-6.9-2l-5.7-2V35.8c0-5.8,0.2-10.6,0.4-10.6s2,0.6,3.8,1.3c2.9,1.1,4.2,1.3,8.1,1.3c4.2,0,5.3-0.2,9.9-1.8C154.5,23.8,156.8,23.8,163.3,26.2z M193.1,87v8.4h-65.2H62.6V87v-8.4h65.2h65.2V87z M54.1,112.3l0.1,8.3h-18h-18v-8.1c0-4.4,0.1-8.3,0.3-8.4c0.2-0.2,8.3-0.3,17.9-0.2L54,104L54.1,112.3z M98.2,112.2v8.4H80.4H62.6v-8.4v-8.4h17.8h17.8V112.2L98.2,112.2z M149,112.3l0.1,8.3h-21.3h-21.3v-8.1c0-4.4,0.1-8.3,0.3-8.4c0.1-0.2,9.7-0.3,21.1-0.2l20.8,0.1L149,112.3z M193.1,112.2v8.4h-17.8h-17.8v-8.4v-8.4h17.8h17.8V112.2z M237.5,112.3l0.1,8.3h-18h-18v-8.1c0-4.4,0.1-8.3,0.3-8.4c0.2-0.2,8.3-0.3,17.9-0.2l17.6,0.1L237.5,112.3z M237.5,182l0.1,52.8h-8.4h-8.4v-45.2v-45.2h-4.2h-4.2v45.2v45.2H204h-8.4v-45.2v-45.2h-4.4h-4.4v45.2v45.2h-8.4h-8.4v-45.2v-45.2h-4.2h-4.2v45.2v45.2h-8.4h-8.4v-45.2v-45.2h-4.2h-4.2v45.2v45.2h-8.4h-8.4v-45.2v-45.2h-4.2h-4.2v45.2v45.2h-8.4h-8.4v-45.2v-45.2h-4.2h-4.2v45.2v45.2h-8.4h-8.4v-45.2v-45.2h-4.4h-4.4v45.2v45.2h-8.4h-8.4v-45.2v-45.2h-4.2H35v45.2v45.2h-8.4h-8.4v-52.5c0-28.9,0.1-52.7,0.3-52.9c0.1-0.2,49.5-0.3,109.6-0.2l109.3,0.1L237.5,182z"/></g></g></g>
</svg>