<?xml version="1.0" encoding="utf-8"?>
<!-- Svg Vector Icons : http://www.onlinewebfonts.com/icon -->
<!DOCTYPE svg PUBLIC "-//W3C//DTD SVG 1.1//EN" "http://www.w3.org/Graphics/SVG/1.1/DTD/svg11.dtd">
<svg version="1.1" xmlns="http://www.w3.org/2000/svg" xmlns:xlink="http://www.w3.org/1999/xlink" x="0px" y="0px" viewBox="0 0 256 256" enable-background="new 0 0 256 256" xml:space="preserve">
<metadata> Svg Vector Icons : http://www.onlinewebfonts.com/icon </metadata>
<g><g><g><path fill="#e76666" d="M12.8,10.2c-0.6,0.2-1.5,1.1-2,1.9c-1.3,2.1-1,4.3,0.9,6l1.4,1.3h115h115l1.5-1.3c1.3-1.2,1.5-1.7,1.5-3.5c0-1.7-0.3-2.4-1.3-3.4l-1.2-1.3L128.6,9.9C60.9,9.8,13.4,10,12.8,10.2z"/><path fill="#e76666" d="M36.1,30.9l-1.5,1.3l-0.1,48.1c-0.1,53.4-0.3,50.4,2.9,51.9c1.4,0.6,10.4,0.7,90.7,0.7c80.3,0,89.3-0.1,90.7-0.7c3.2-1.5,3,1.3,3-50.9c0-50.8,0-49.3-2.4-51c-1-0.7-8.6-0.7-91.5-0.7H37.6L36.1,30.9z M211.6,81.1v41.8H128H44.5V81.1V39.3H128h83.6V81.1z"/><path fill="#e76666" d="M106.9,49.5c-0.8,0.2-1.9,0.9-2.4,1.6c-1,1.2-1,1.7-1,30v28.8l1.3,1.4c2.3,2.6,6.7,1.9,7.9-1.2c0.3-0.7,0.5-12.1,0.5-29.2c0-27.1,0-28.1-0.9-29.5c-0.5-0.8-1-1.5-1-1.5c-0.1,0-0.8-0.2-1.5-0.4C109,49.3,107.8,49.3,106.9,49.5z"/><path fill="#e76666" d="M146.1,49.5c-1,0.3-1.8,1-2.4,1.9c-0.9,1.4-0.9,2.3-0.8,30.2l0.1,28.8l1.3,1.2c1,1,1.7,1.3,3.4,1.3c1.8,0,2.3-0.2,3.5-1.5l1.3-1.5V81.1V52.3l-1-1.2C150.2,49.6,148.1,49,146.1,49.5z"/><path fill="#e76666" d="M126.8,64.1c-0.6,0.1-1.6,0.8-2.3,1.6l-1.3,1.4l-0.1,20.4c-0.1,14,0,21,0.4,22.2c0.6,1.9,2.7,3.6,4.6,3.6c1.9,0,4.1-1.6,4.6-3.6c0.4-1.2,0.5-8.2,0.4-22.2L132.9,67l-1.4-1.3C130.1,64.3,128.6,63.8,126.8,64.1z"/><path fill="#e76666" d="M166,79.1c-0.8,0.2-1.9,0.9-2.4,1.6c-0.9,1.2-1,1.8-1,15.2v14l1.3,1.4c2.3,2.6,6.7,1.9,7.9-1.2c0.3-0.6,0.5-6.9,0.5-14.4c0-12.4,0-13.3-0.9-14.8c-0.5-0.8-1-1.5-1-1.5c-0.1,0-0.8-0.2-1.5-0.4C168.1,78.9,166.9,78.9,166,79.1z"/><path fill="#e76666" d="M86.7,84c-0.5,0.2-1.3,0.9-1.8,1.4c-0.9,1-0.9,1.7-0.9,13v12l1.3,1.2c1,1,1.7,1.3,3.4,1.3c1.8,0,2.3-0.2,3.5-1.5l1.3-1.5V98.4V86.8l-1.2-1.4C90.8,83.9,88.4,83.3,86.7,84z"/><path fill="#e76666" d="M60.8,144.3c-1.1,1.1-1.6,2-1.6,3c0,1.8,1.1,4,2.3,4.7c0.6,0.3,11.3,0.5,31.2,0.5H123l0,26.2v26.2l-19.1,16.6c-10.5,9.1-19.3,17.1-19.6,17.7c-1.8,3.7,2.3,8.2,6.2,6.7c0.4-0.2,7.8-6.5,16.5-14.1l15.8-13.8l0.2,12.3c0.2,13.3,0.4,13.9,2.8,15.1c1.7,0.9,2.9,0.9,4.6,0c2.4-1.2,2.5-1.8,2.8-15.1l0.2-12.4l15.8,13.9c8.7,7.6,16.3,14,17,14.1c3.4,0.8,6.9-2.6,6-6c-0.4-1.4-0.8-1.8-21.2-19.7l-17.8-15.5v-26.2l0-26.2h30.4c28,0,30.4-0.1,31.3-0.8c2.5-2,2.7-5,0.5-7.3l-1.6-1.6H128H62.4L60.8,144.3z"/></g></g></g>
</svg>