<svg class="svg-icon" style="width: 1em; height: 1em;vertical-align: middle;fill: currentColor;overflow: hidden;" viewBox="0 0 1024 1024" version="1.1" xmlns="http://www.w3.org/2000/svg"><path d="M736 549.3V400c0-20.6-16.7-37.3-37.3-37.3-20.6 0-37.3 16.7-37.3 37.3v149.3c0 6.1-1.8 149.3-149.3 149.3-143.8 0-149.2-134.2-149.3-149.3V400c0-20.6-16.7-37.3-37.3-37.3-20.6 0-37.3 16.7-37.3 37.3v149.3c0 71.7 40.3 202.3 186.7 221.4v114.6H325.3c-20.6 0-37.3 16.7-37.3 37.3 0 20.6 16.7 37.3 37.3 37.3h373.3c20.6 0 37.3-16.7 37.3-37.3 0-20.6-16.7-37.3-37.3-37.3H549.3V770.8C695.7 751.6 736 621 736 549.3" style="fill: #e76666"  /><path d="M511.9 661.3c61.9 0 112-50.1 112-112V400H400v-37.3h223.9V176c0-61.8-50.1-112-111.9-112-61.9 0-112 50.1-112 112l-0.1 373.4c0.1 61.8 50.2 111.9 112 111.9" style="fill: #e76666"  /></svg>