<?xml version="1.0" encoding="utf-8"?>
<!-- Svg Vector Icons : http://www.onlinewebfonts.com/icon -->
<!DOCTYPE svg PUBLIC "-//W3C//DTD SVG 1.1//EN" "http://www.w3.org/Graphics/SVG/1.1/DTD/svg11.dtd">
<svg version="1.1" xmlns="http://www.w3.org/2000/svg" xmlns:xlink="http://www.w3.org/1999/xlink" x="0px" y="0px" viewBox="0 0 256 256" enable-background="new 0 0 256 256" xml:space="preserve">
<metadata> Svg Vector Icons : http://www.onlinewebfonts.com/icon </metadata>
<g><g><g><path fill="#e76666" d="M83.8,26.1c-9,1.7-16.7,9.7-18.4,18.8c-0.3,1.6-0.5,8.1-0.5,14.3v11.4l11.8,11.8l11.8,11.8v-22c0-16.4,0.1-22.1,0.6-22.5c0.8-0.8,92.5-0.8,93.4,0c0.4,0.4,0.6,3.2,0.6,9.1c0,14.4,1.2,19.7,5.6,24.1s9.7,5.6,24.1,5.6c5.9,0,8.7,0.2,9.1,0.6c0.8,0.8,0.8,116.2,0,117c-0.8,0.8-131.9,0.8-132.8,0c-0.4-0.4-0.6-4.4-0.6-14.7v-14l-11.8-11.8l-11.8-11.8v27.3c0,29.8,0.1,31.6,2.8,36.6c3.2,6,9.9,10.9,16.6,12.1c2,0.4,24.3,0.5,71.4,0.5c74.6,0,72.4,0,77.8-2.8c6.1-3.2,11.1-10.2,12.2-16.9c0.3-2.2,0.5-23.4,0.4-67.2l-0.1-64l-1.3-2.2c-0.7-1.2-12.2-13.1-25.6-26.4c-20.7-20.6-24.6-24.3-26.3-24.7C190.1,25.4,87.4,25.5,83.8,26.1z"/><path fill="#e76666" d="M21.5,57.7c-6.9,2-11.5,7.9-11.5,15.1c0,5.7,1.3,8.2,8.7,15.6l6,6.1l11.2-11.2l11.2-11.2l-5.8-5.8c-4.2-4.3-6.5-6.2-8.8-7.3C29,57.2,24.9,56.8,21.5,57.7z"/><path fill="#e76666" d="M108.7,73.9c-2.4,1.2-4.4,4.4-4.4,6.8s2.1,5.6,4.4,6.7c2.2,1.1,2.2,1.1,27.1,1.1c24.9,0,24.9,0,27.1-1.1c2.4-1.2,4.4-4.3,4.4-6.7s-2.1-5.6-4.4-6.8c-2.2-1.1-2.2-1.1-27.1-1.1C110.9,72.8,110.8,72.8,108.7,73.9z"/><path fill="#e76666" d="M43.2,90.8l-11.1,11.1l33.5,33.5c20.6,20.6,34.6,34.2,36.4,35.5c5.6,3.7,40.2,20.2,41,19.5c0.3-0.3-6.1-14.7-11.2-25.5c-8.2-16.8-4.7-12.7-43-51.1C70.1,95.1,54.7,79.7,54.5,79.7C54.4,79.7,49.3,84.7,43.2,90.8z M118.1,155.4c1.2,2.1,3,5.3,3.9,7.2l1.6,3.3l-2.6,2.6l-2.6,2.6l-3.3-1.6c-3-1.4-8.4-4.5-10.5-5.9c-0.6-0.4,0.3-1.6,4.9-6.2c3.1-3.1,5.8-5.7,5.9-5.7C115.8,151.6,116.9,153.3,118.1,155.4z"/><path fill="#e76666" d="M109.7,112.8c-0.6,0.3-1.3,0.6-1.4,0.7c-0.1,0.1,3,3.4,6.8,7.3l7.1,7.1h38.9h38.9l2.2-1.1c2.4-1.2,4.4-4.3,4.4-6.7c0-2.4-2.1-5.6-4.4-6.8l-2.2-1.1l-44.6,0.1C127.5,112.3,110.5,112.5,109.7,112.8z"/><path fill="#e76666" d="M136.3,144c0,0.1,1.1,2.2,2.4,4.6c1.3,2.4,3.2,5.8,4,7.6l1.6,3.3h27.9h27.9l2.2-1.1c2.4-1.2,4.4-4.3,4.4-6.7c0-2.4-2.1-5.6-4.4-6.8l-2.2-1.1h-31.9C150.6,143.7,136.3,143.8,136.3,144z"/><path fill="#e76666" d="M153.3,179.3c3.1,7,3.6,8.8,3.6,10.2v1.5h21.6c21.4,0,21.6,0,23.7-1.1c2.4-1.2,4.4-4.4,4.4-6.8s-2.1-5.6-4.4-6.8c-2.2-1.1-2.3-1.1-26.4-1.1h-24.2L153.3,179.3z"/></g></g></g>
</svg>